<?xml version="1.0" encoding="UTF-8"?>
<svg id="Layer_1" data-name="Layer 1" xmlns="http://www.w3.org/2000/svg" xmlns:xlink="http://www.w3.org/1999/xlink" viewBox="0 0 3000 800">
  <defs>
    <clipPath id="clippath">
      <rect width="3000" height="800" fill="none"/>
    </clipPath>
  </defs>
  <g clip-path="url(#clippath)">
    <g id="am2187">
      <g id="am2188">
        <path d="M1548.13,347.94l340.3,286.05h-680.6l340.3-286.05Z" fill="#c2e1f7"/>
      </g>
      <g id="am2189">
        <path d="M2792.56,355.3l361.19,286.05h-722.38l361.19-286.05Z" fill="#c2e1f7"/>
      </g>
      <g id="am2190">
        <path d="M2309.29,293.34l443.58,286.05h-887.16l443.58-286.05Z" fill="#c2e1f7"/>
      </g>
      <g id="am2191">
        <path d="M2602.21,394.13l443.58,286.05h-887.16l443.58-286.05Z" fill="#c2e1f7"/>
      </g>
      <g id="am2192">
        <path d="M2677.27,458.64c189.16,0,342.49,43.52,342.49,97.22h-684.99c0-53.7,153.34-97.22,342.49-97.22Z" fill="#6fc0ea"/>
      </g>
      <g id="am2193">
        <path d="M1294.14,442.44c189.15,0,342.49,27.27,342.49,60.9h-684.99c0-33.63,153.34-60.9,342.49-60.9Z" fill="#6fc0ea"/>
      </g>
    </g>
    <rect x="1431.5" y="6.11" width="1472.42" height="788.8" fill="none"/>
    <rect x="-79.15" y="-7.31" width="3080.85" height="802.22" fill="#d9effc"/>
    <rect x="1431.5" y="6.11" width="1472.42" height="788.8" fill="none"/>
    <rect x="1431.5" y="6.11" width="1472.42" height="788.8" fill="none"/>
    <path d="M-8.94,506.15h3014.04v292.89H-8.94v-292.89Z" fill="#3e4e93" fill-rule="evenodd"/>
    <path d="M-91.54,506.15h3096.64v15.5H-91.54v-15.5Z" fill="#a0d7e9" fill-rule="evenodd"/>
    <path d="M-246.41,574.3h3251.51v224.74H-246.41v-224.74Z" fill="#3e4e93" fill-rule="evenodd"/>
    <path d="M-285.64,665.86h3290.72v133.17H-285.64v-133.17Z" fill="#3e4e93" fill-rule="evenodd"/>
    <path d="M-49.49,750.97h3054.56v48.06H-49.49v-48.06Z" fill="#3e4e93" fill-rule="evenodd"/>
    <path d="M1878.72,607.96c62.23,0,112.67,8.97,112.67,20.04h-225.33c0-11.07,50.45-20.04,112.66-20.04Z" fill="#61c3e2"/>
    <path d="M1575.57,677.53c62.23,0,112.67,8.97,112.67,20.03h-225.34c0-11.06,50.45-20.03,112.67-20.03Z" fill="#0ca9d5"/>
    <path d="M2096.16,774.87c62.23,0,112.66,8.97,112.66,20.04h-225.33c0-11.07,50.45-20.04,112.67-20.04Z" fill="#0082bc"/>
    <path d="M2685.02,774.87c62.23,0,112.66,8.97,112.66,20.04h-225.33c0-11.07,50.45-20.04,112.67-20.04Z" fill="#0082bc"/>
    <path d="M2005.62,683.54c45.59,0,82.54,6.73,82.54,15.03h-165.08c0-8.3,36.95-15.03,82.54-15.03Z" fill="#0ca9d5"/>
    <path d="M2875.08,684.79c45.58,0,82.54,6.72,82.54,15.02h-165.07c0-8.3,36.95-15.02,82.54-15.02Z" fill="#0ca9d5"/>
    <path d="M2792.56,607.96c62.23,0,112.67,8.97,112.67,20.04h-225.34c0-11.07,50.45-20.04,112.67-20.04Z" fill="#61c3e2"/>
    <path d="M1477.81,607.96c60.44,0,109.44,8.97,109.44,20.04h-218.88c0-11.07,48.99-20.04,109.44-20.04Z" fill="#61c3e2"/>
    <path d="M1618.33,129.08c-9.2,2.74-14.48,12.56-11.79,21.92,2.69,9.36,12.33,14.73,21.54,11.99,9.2-2.74,14.47-12.55,11.78-21.91-2.7-9.36-12.33-14.73-21.53-12Z" fill="#fff" fill-rule="evenodd"/>
    <path d="M1555.18,98.65c-9.2,2.73-14.47,12.55-11.78,21.91,2.69,9.36,12.33,14.73,21.53,12,9.2-2.74,14.47-12.56,11.79-21.92-2.69-9.36-12.34-14.73-21.54-11.99Z" fill="#fff" fill-rule="evenodd"/>
    <path d="M1567.94,118.68c-9.2,2.74-13.89,14.59-10.47,26.47,3.42,11.89,13.64,19.3,22.84,16.55,9.2-2.74,13.89-14.59,10.48-26.47-3.42-11.89-13.65-19.3-22.85-16.55Z" fill="#fff" fill-rule="evenodd"/>
    <path d="M1589.86,115.57c-15.24-6.65-31.49-2.81-36.28,8.57-4.79,11.38,3.69,25.99,18.94,32.63,15.24,6.66,31.49,2.81,36.28-8.56,4.79-11.38-3.69-25.99-18.94-32.64Z" fill="#fff" fill-rule="evenodd"/>
    <path d="M1590.74,96.23c-11.87,3.53-18.68,16.2-15.21,28.28,3.48,12.09,15.92,19.01,27.79,15.47,11.88-3.53,18.69-16.19,15.21-28.28-3.48-12.08-15.92-19.01-27.8-15.47Z" fill="#fff" fill-rule="evenodd"/>
    <path d="M1536.41,119.03c-11.88,3.53-18.69,16.2-15.21,28.28,3.47,12.09,15.91,19.01,27.79,15.47,11.88-3.53,18.68-16.19,15.21-28.28-3.47-12.09-15.92-19.01-27.79-15.47Z" fill="#fff" fill-rule="evenodd"/>
    <path d="M1542.7,146.04h81.41v17.67h-81.41v-17.67Z" fill="#fff" fill-rule="evenodd"/>
    <path d="M2818.96,273.53c-9.2,2.74-14.47,12.56-11.79,21.92,2.7,9.36,12.34,14.73,21.54,11.99,9.2-2.73,14.47-12.55,11.78-21.91-2.69-9.36-12.33-14.73-21.53-12Z" fill="#fff" fill-rule="evenodd"/>
    <path d="M2755.81,243.1c-9.2,2.74-14.47,12.55-11.78,21.91,2.7,9.36,12.33,14.73,21.53,12,9.2-2.74,14.48-12.56,11.79-21.92-2.7-9.36-12.33-14.73-21.54-11.99Z" fill="#fff" fill-rule="evenodd"/>
    <path d="M2768.58,263.13c-9.2,2.74-13.89,14.59-10.48,26.48,3.42,11.88,13.64,19.29,22.84,16.54,9.2-2.73,13.89-14.59,10.48-26.47-3.42-11.89-13.64-19.3-22.84-16.55Z" fill="#fff" fill-rule="evenodd"/>
    <path d="M2790.5,260.03c-15.25-6.66-31.49-2.82-36.28,8.56-4.8,11.38,3.68,25.99,18.93,32.63,15.24,6.66,31.49,2.82,36.28-8.56,4.79-11.38-3.69-25.99-18.93-32.63Z" fill="#fff" fill-rule="evenodd"/>
    <path d="M2791.38,240.68c-11.88,3.53-18.69,16.2-15.21,28.28,3.48,12.09,15.92,19.01,27.8,15.47,11.87-3.53,18.68-16.19,15.21-28.28-3.48-12.08-15.92-19.01-27.79-15.47Z" fill="#fff" fill-rule="evenodd"/>
    <path d="M2737.04,263.48c-11.87,3.53-18.68,16.2-15.21,28.28,3.47,12.09,15.92,19.01,27.79,15.47,11.88-3.53,18.69-16.19,15.21-28.28-3.47-12.08-15.91-19.01-27.79-15.47Z" fill="#fff" fill-rule="evenodd"/>
    <path d="M2743.33,290.49h81.41v17.67h-81.41v-17.67Z" fill="#fff" fill-rule="evenodd"/>
    <path d="M2280.52,222.14c9.2,2.74,14.47,12.56,11.78,21.92-2.69,9.36-12.33,14.73-21.53,11.99-9.2-2.74-14.47-12.55-11.78-21.91,2.69-9.36,12.33-14.73,21.53-12Z" fill="#fff" fill-rule="evenodd"/>
    <path d="M2343.65,191.7c9.2,2.73,14.48,12.55,11.79,21.91-2.7,9.36-12.33,14.73-21.53,12-9.2-2.74-14.48-12.56-11.79-21.92,2.7-9.36,12.33-14.73,21.53-11.99Z" fill="#fff" fill-rule="evenodd"/>
    <path d="M2330.89,211.73c9.2,2.74,13.89,14.59,10.48,26.47-3.42,11.89-13.64,19.3-22.84,16.55-9.21-2.74-13.89-14.59-10.48-26.47,3.42-11.89,13.64-19.3,22.84-16.55Z" fill="#fff" fill-rule="evenodd"/>
    <path d="M2308.97,208.63c15.25-6.65,31.49-2.81,36.28,8.56,4.79,11.39-3.68,26-18.93,32.64-15.25,6.66-31.49,2.81-36.28-8.56-4.79-11.38,3.69-25.99,18.93-32.64Z" fill="#fff" fill-rule="evenodd"/>
    <path d="M2308.09,189.29c11.88,3.53,18.69,16.2,15.21,28.28-3.47,12.09-15.91,19.01-27.79,15.47-11.87-3.53-18.69-16.19-15.21-28.28,3.47-12.08,15.92-19.01,27.79-15.47Z" fill="#fff" fill-rule="evenodd"/>
    <path d="M2362.44,212.09c11.87,3.53,18.68,16.2,15.21,28.28-3.47,12.09-15.92,19.01-27.79,15.47-11.88-3.53-18.69-16.19-15.21-28.28,3.47-12.09,15.91-19.01,27.79-15.47Z" fill="#fff" fill-rule="evenodd"/>
    <path d="M2356.14,239.09h-81.41v17.67h81.41v-17.67Z" fill="#fff" fill-rule="evenodd"/>
    <path d="M2735.51,125.42c-13.85,4.12-21.8,18.91-17.74,33,4.05,14.1,18.58,22.19,32.43,18.06,13.86-4.12,21.81-18.9,17.75-33-4.05-14.1-18.58-22.19-32.44-18.06Z" fill="#fff" fill-rule="evenodd"/>
    <path d="M2640.42,79.58c-13.85,4.12-21.8,18.9-17.74,33,4.05,14.1,18.57,22.19,32.43,18.06,13.86-4.12,21.81-18.91,17.75-33.01-4.05-14.09-18.58-22.18-32.44-18.05Z" fill="#fff" fill-rule="evenodd"/>
    <path d="M2659.64,109.74c-13.85,4.13-20.92,21.98-15.77,39.87,5.15,17.9,20.55,29.06,34.41,24.93,13.86-4.13,20.92-21.98,15.77-39.88-5.14-17.89-20.55-29.05-34.41-24.93Z" fill="#fff" fill-rule="evenodd"/>
    <path d="M2649.41,107.87c-36.82.72-84.1,18.89-83.74,37.53.35,18.64,48.2,30.7,85.02,29.97,36.82-.72,74.91-15.11,74.56-33.75-.36-18.64-39.01-34.47-75.83-33.75Z" fill="#fff" fill-rule="evenodd"/>
    <path d="M2693.98,75.94c-17.88,5.33-28.14,24.4-22.9,42.6,5.23,18.2,23.97,28.63,41.85,23.3,17.88-5.32,28.14-24.39,22.91-42.59-5.24-18.2-23.98-28.63-41.86-23.31Z" fill="#fff" fill-rule="evenodd"/>
    <path d="M2582.84,91.4c-17.88,5.32-28.14,24.39-22.91,42.59,5.24,18.2,23.98,28.63,41.85,23.31,17.89-5.33,28.15-24.4,22.91-42.6-5.23-18.2-23.97-28.63-41.85-23.3Z" fill="#fff" fill-rule="evenodd"/>
    <path d="M2535.71,126.95c-13.45,4-21.17,18.35-17.23,32.04,3.94,13.69,18.03,21.54,31.48,17.53,13.46-4,21.17-18.35,17.23-32.04-3.94-13.69-18.03-21.54-31.48-17.53Z" fill="#fff" fill-rule="evenodd"/>
    <path d="M2542.84,150.96h201.39v26.61h-201.39v-26.61Z" fill="#fff" fill-rule="evenodd"/>
    <path d="M1950.99,75.35c-12.18,3.63-19.18,16.63-15.61,29.03,3.57,12.4,16.34,19.51,28.53,15.88,12.19-3.63,19.18-16.63,15.61-29.02-3.57-12.4-16.34-19.51-28.53-15.89Z" fill="#fff" fill-rule="evenodd"/>
    <path d="M1867.35,35.03c-12.18,3.62-19.17,16.62-15.61,29.02,3.57,12.4,16.34,19.51,28.53,15.88,12.18-3.62,19.18-16.62,15.61-29.02-3.57-12.4-16.34-19.51-28.53-15.88Z" fill="#fff" fill-rule="evenodd"/>
    <path d="M1884.26,61.56c-12.19,3.63-18.4,19.33-13.88,35.07,4.52,15.74,18.08,25.55,30.26,21.92,12.19-3.63,18.4-19.33,13.88-35.07-4.52-15.74-18.08-25.55-30.26-21.92Z" fill="#fff" fill-rule="evenodd"/>
    <path d="M1875.26,59.91c-32.38.64-74.5,15.91-74.18,32.3.31,16.4,42.92,27.71,75.3,27.08,32.38-.64,64.72-12.83,64.4-29.23-.3-16.4-33.14-30.77-65.52-30.15Z" fill="#fff" fill-rule="evenodd"/>
    <path d="M1914.46,31.83c-15.73,4.68-24.75,21.45-20.14,37.46,4.6,16,21.08,25.18,36.81,20.49,15.72-4.69,24.75-21.46,20.14-37.46-4.6-16.01-21.09-25.18-36.81-20.49Z" fill="#fff" fill-rule="evenodd"/>
    <path d="M1816.71,45.43c-15.72,4.69-24.75,21.45-20.14,37.46,4.6,16,21.09,25.18,36.81,20.49,15.73-4.69,24.75-21.45,20.15-37.46-4.61-16-21.09-25.18-36.82-20.49Z" fill="#fff" fill-rule="evenodd"/>
    <path d="M1775.26,76.69c-11.83,3.52-18.61,16.14-15.15,28.18,3.46,12.04,15.86,18.94,27.69,15.42,11.83-3.52,18.62-16.14,15.15-28.18-3.46-12.03-15.86-18.94-27.69-15.42Z" fill="#fff" fill-rule="evenodd"/>
    <path d="M1781.53,97.8h177.13v23.41h-177.13v-23.41Z" fill="#fff" fill-rule="evenodd"/>
    <rect x="1431.5" y="6.11" width="1472.42" height="788.8" fill="none"/>
    <rect x="1431.5" y="6.11" width="1472.42" height="788.8" fill="none"/>
    <rect x="1431.5" y="6.11" width="1472.42" height="788.8" fill="none"/>
    <rect x="1431.5" y="6.11" width="1472.42" height="788.8" fill="none"/>
    <g>
      <g id="am2234">
        <path d="M1776.28,386.82l29.74,3.28-2.34,22-29.74-3.27,2.34-22.01Z" fill="#494d75" fill-rule="evenodd"/>
      </g>
      <g id="am2235">
        <path d="M1774.4,405.05l13.39,1.47-2.17,20.39-13.39-1.47,2.17-20.39Z" fill="#494d75" fill-rule="evenodd"/>
      </g>
      <g id="am2236">
        <path d="M1789.6,408.59l12.9-3.88,5.71,19.65-12.9,3.89-5.71-19.66Z" fill="#494d75" fill-rule="evenodd"/>
      </g>
      <g id="am2237">
        <path d="M1779.17,385.44c2.16-2.42,2-6.16-.37-8.35l-20.79-16.79c-1.69-1.36-4.11-1.16-5.55.44-1.44,1.6-1.42,4.06.04,5.63l18.05,19.46c2.48,2.32,6.34,2.14,8.62-.39h0Z" fill="#fff" fill-rule="evenodd"/>
      </g>
      <g id="am2238">
        <path d="M1793.1,365.87c.89-2.51,1.41-8.46-1.35-9.66-6.2-2.71-18.55,17.73-19.04,20.18-.8,3.95,3,8.62,7.12,8.88,5.48.35,11.45-14.33,13.27-19.4Z" fill="#fff"/>
      </g>
      <g id="am2239">
        <path d="M1790.05,356.49s-13.48,23.76-15.87,36.04c0,0,20.23,11.14,30.66,8.67,0,0,9.86-31.29,8.48-35.43-1.34-4.01-14.81-11.92-23.27-9.28Z" fill="#ec6e61"/>
      </g>
      <g id="am2240">
        <path d="M1817.14,374.4c.3-2.64-.54-8.56-3.5-9.08-6.66-1.18-14.03,21.61-13.96,24.11.13,4.03,4.88,7.67,8.95,6.96,5.41-.95,7.88-16.64,8.5-21.99Z" fill="#fff"/>
      </g>
      <g id="am2241">
        <path d="M1812.38,390.01c-.6-3.21-3.64-5.31-6.8-4.7l-25.66,6.9c-2.07.55-3.37,2.65-2.97,4.79.4,2.12,2.35,3.58,4.45,3.33l26.13-3.06c3.31-.64,5.49-3.9,4.85-7.26h0Z" fill="#fff" fill-rule="evenodd"/>
      </g>
      <g id="am2242">
        <path d="M1749.86,361.41c1.04-1.79,1.43-3.6.38-5.65-.57-1.11-2.37-3.9-.06-4.55,2.66-.74,3.39,3.05,3.83,5.19,1.8.65,6.09,2.68,5.79,5.1-.3,2.48-4.49,5.24-6.43,6.27-2.53-1.85-2.69-4.51-3.51-6.37Z" fill="#2868a8"/>
      </g>
      <g id="am2243">
        <path d="M1796.9,356.18c4.4.55,9.14,2.89,12.65,5.46-.19.76-.52,1.51-.99,2.18-2.11,3.04-6.37,3.69-9.5,1.43-2.94-2.13-3.85-6.07-2.16-9.06Z" fill="#fff"/>
      </g>
      <g id="am2244">
        <path d="M1803.43,350.1l5.59,2.34-3.58,8.85c-.71,1.76-2.69,2.61-4.43,1.88-1.36-.57-2.01-2.15-1.45-3.53l3.86-9.54Z" fill="#f18c67" fill-rule="evenodd"/>
      </g>
      <g id="am2245">
        <path d="M1807.88,333.56c6.37.44,9.13,2.12,9.37,5.44.26,3.61.21,7.26-1.91,9.81-1.17,1.41-2.52,2.62-3.63,4.09-.28.36-.73,1.34-1.26,1.32-1.37-.07-2.86-3.58-3.36-4.64-2.02-4.3-6.33-16.5.79-16.01Z" fill="#494d75"/>
      </g>
      <g id="am2246">
        <path d="M1796.21,352.69c.05-.17.07-.31.07-.44-.02-.54-.43-.75-.36-1.16.04-.24.4-.22.52-.32,0,0-.3-.2-.38-.29-.46-.54.37-.76.6-1.49,0-.03-.03-.05-.04-.08-.47-.3-1.48-.5-1.44-1.21.04-.57.92-.95,1.54-1.45.37-.29.52-.79.69-1.22.35-.87.19-1.43.36-2.35.49-2.62,1.78-5.79,4.61-6.48,2.74-.66,4.94,1.19,5.43,3.73.95,4.86,3.06,10.52,2.39,11.21-.95.98-2.21,3.08-3.43,3.59-2.45,1.03-4.68.97-7.34.9-1.05-.03-2.85-.08-3.58-1.14-.43-.63.15-1.15.34-1.78h0Z" fill="#f3ab94" fill-rule="evenodd"/>
      </g>
      <g id="am2247">
        <path d="M1812.25,352.02c-.54-.95-1.89-1.19-3.01-.54-1.12.66-1.58,1.98-1.03,2.93.54.96,1.89,1.2,3.01.54s1.58-1.97,1.03-2.93Z" fill="#f3ab94" fill-rule="evenodd"/>
      </g>
      <g id="am2248">
        <path d="M1809.92,344.79l-11.95-10.18s-10.16,1.83-8.96,3.31c4.89,6.02,20.91,6.87,20.91,6.87Z" fill="#ec6e61"/>
      </g>
      <g id="am2249">
        <path d="M1814.83,349.4s-9.84-8.05-17.29-14.43c0,0,8.41-10.07,17.97-.82,7.97,7.7-.69,15.25-.69,15.25Z" fill="#2868a8"/>
      </g>
      <g id="am2250">
        <path d="M1781.67,417.96c.69.15,1.27-.54,1.04-1.21-3.83-11.39-30.03-83.67-88.67-116.51-.36-.2-.8-.14-1.09.15-.41.43-.32,1.14.2,1.44,33.47,19.8,66.39,57.65,84.91,112.92.54,1.64,1.91,2.86,3.58,3.2h.03Z" fill="#2b2d45"/>
      </g>
      <g id="am2251">
        <path d="M1785.18,389.5c-3.63.85-5.29,1.95-7.19,3.6-2.35.24-5.67,1.47-7.59,2.77-2.65,1.77-1.79,5.38-.45,7.67.65,1.1,1.9,1.68,3.15,1.46,3.51-.63,6.97-1.94,7.27-4.35,1.68-.35,7.45,1.19,8.31-.75,1.03-2.32-1.51-7.79-3.5-10.41Z" fill="#2868a8"/>
      </g>
      <g id="am2252">
        <path d="M1752.16,358.58c.33,2.61-1.19,4.96-3.38,5.24s-4.24-1.6-4.56-4.21c-.33-2.61,1.19-4.96,3.37-5.24,2.2-.28,4.24,1.6,4.57,4.21Z" fill="#2868a8" fill-rule="evenodd"/>
      </g>
      <g id="am2253">
        <path d="M1762.65,382.82c-2.69,0-4.89,2.22-4.89,4.98s2.2,4.98,4.89,4.98,4.89-2.22,4.89-4.98-2.19-4.98-4.89-4.98Z" fill="#2b2d45" fill-rule="evenodd"/>
      </g>
      <g id="am2254">
        <path d="M1766.03,383.28c-.11,0-.22-.04-.31-.13-.15-.15-15.25-15.16-20.21-31.61-1.71-.86-14.81-7.79-16.18-19.59-1.9-.58-11.87-4.05-13.33-12.86-1.7-.4-9.69-2.61-11.02-8.76-1.33-.09-5.8-.72-7.17-4.93-1.75.05-4.71-.74-5.08-4.06-.03-.25.15-.47.39-.5.24-.03.47.15.49.4.4,3.57,4.32,3.26,4.48,3.24.21-.02.41.12.47.33,1.26,4.62,6.56,4.65,6.79,4.63.22,0,.41.16.44.38,1.09,6.41,10.6,8.43,10.7,8.45.18.04.33.19.35.38,1.3,9.18,12.91,12.48,13.03,12.51.18.05.31.21.33.39,1.2,12.24,15.74,19.19,15.89,19.26.12.05.2.16.24.28,4.83,16.3,19.88,31.26,20.03,31.41.18.17.18.46.01.64-.09.09-.2.14-.32.14Z" fill="#2b2d45"/>
      </g>
      <g id="am2255">
        <path d="M1772.6,691.96c-.11,0-.23-.02-.34-.07-41.13-17.14-70.88-48.47-88.41-93.1-14-35.63-20.28-79.77-18.66-131.2,2.75-87.48,27.76-166.84,28.01-167.63.15-.48.66-.74,1.12-.58.47.15.73.67.57,1.14-.25.79-25.19,79.94-27.92,167.16-2.52,80.32,13.82,184.12,105.97,222.53.46.19.67.72.49,1.18-.14.35-.47.56-.83.56Z" fill="#2b2d45"/>
      </g>
    </g>
    <g>
      <g id="am2257">
        <path d="M1867.64,427.61c-.81,0-1.59-.45-1.98-1.23l-5.69-11.21c-7.8-12.29-23.44-19.72-39.86-18.93l-100.39,2.65,4.94,26.02c.23,1.23-.56,2.42-1.77,2.66-1.21.24-2.38-.57-2.61-1.8l-5.44-28.65c-.12-.66.04-1.33.45-1.85.41-.52,1.02-.83,1.68-.85l102.97-2.71c17.96-.87,35.2,7.41,43.83,21.1.04.06.07.12.1.18l5.74,11.31c.56,1.11.14,2.48-.96,3.06-.33.17-.68.25-1.02.25Z" fill="#494d75"/>
      </g>
      <g id="am2258">
        <path d="M1767.89,426.99c-1.04,0-1.98-.75-2.19-1.83l-5.47-28.15c-.24-1.23.55-2.42,1.76-2.67,1.21-.24,2.38.56,2.62,1.79l5.47,28.15c.24,1.23-.55,2.42-1.76,2.67-.15.03-.29.04-.44.04Z" fill="#494d75"/>
      </g>
      <g id="am2259">
        <path d="M1815.88,425.72c-1.04,0-1.98-.75-2.19-1.83l-5.47-28.15c-.24-1.23.55-2.42,1.76-2.67,1.21-.24,2.38.56,2.62,1.79l5.47,28.15c.24,1.23-.55,2.42-1.76,2.67-.15.03-.29.04-.44.04Z" fill="#494d75"/>
      </g>
      <g id="am2260">
        <path d="M1934.84,478.42c-1.23,0-2.23-1.02-2.23-2.27v-229.8c0-1.25,1-2.27,2.23-2.27s2.23,1.02,2.23,2.27v229.8c0,1.25-1,2.27-2.23,2.27Z" fill="#494d75"/>
      </g>
      <g id="am2261">
        <path d="M2033.26,486.82c-.67,0-1.33-.3-1.77-.88l-96.65-127.59-96.65,127.59c-.75.99-2.15,1.18-3.13.41-.98-.77-1.16-2.19-.41-3.18l98.42-129.92c.42-.56,1.08-.88,1.77-.88s1.34.33,1.77.88l98.42,129.92c.75.99.57,2.42-.41,3.18-.41.32-.89.47-1.36.47Z" fill="#494d75"/>
      </g>
      <g id="am2262">
        <path d="M1981.59,486.82c-.91,0-1.76-.57-2.09-1.49l-44.66-124.1-44.66,124.1c-.42,1.18-1.71,1.78-2.86,1.35-1.16-.43-1.75-1.73-1.33-2.91l46.75-129.92c.32-.89,1.16-1.49,2.09-1.49s1.77.6,2.09,1.49l46.75,129.92c.42,1.18-.17,2.48-1.33,2.91-.25.09-.51.14-.77.14Z" fill="#494d75"/>
      </g>
      <g id="am2263">
        <path d="M2187.41,267.24c-.61,0-1.22-.26-1.66-.76l-98.01-111.58-151.75,92.91c-1.05.65-2.43.3-3.06-.77-.63-1.07-.29-2.47.76-3.12l153.33-93.88c.92-.56,2.1-.38,2.81.43l99.24,112.98c.82.93.74,2.37-.18,3.21-.43.39-.96.58-1.49.58Z" fill="#494d75"/>
      </g>
      <g id="am2264">
        <path d="M2179.45,257.54c0-4.39,3.5-7.96,7.83-7.95,4.46,0,8.08,3.68,8.08,8.23v108.35h-15.91v-108.62Z" fill="#494d75" fill-rule="evenodd"/>
      </g>
      <g id="am2265">
        <path d="M2037.18,326.14h166.18v150.01h-166.18v-150.01Z" fill="#fff" fill-rule="evenodd"/>
      </g>
      <g id="am2266">
        <path d="M2378.86,383.45c0-4.81,3.84-8.72,8.57-8.72s8.57,3.9,8.57,8.72v85.82h-17.13v-85.82Z" fill="#494d75" fill-rule="evenodd"/>
      </g>
      <g id="am2267">
        <path d="M2049.13,374.73h46.98v44.86h-46.98v-44.86Z" fill="#323858" fill-rule="evenodd"/>
      </g>
      <g id="am2268">
        <path d="M2037.18,326.14h15.91v143.12h-15.91v-143.12Z" fill="#494d75" fill-rule="evenodd"/>
      </g>
      <g id="am2269">
        <path d="M2080.2,152.89c0-4.47,3.56-8.09,7.96-8.09s7.95,3.62,7.95,8.09v184.35h-15.91v-184.35Z" fill="#494d75" fill-rule="evenodd"/>
      </g>
      <g id="am2270">
        <path d="M1720.04,428.75c-1.37-2.68.54-5.88,3.51-5.88h145.72l34.13,46.4h492.61l-21.72,76.96h-594.17l-60.07-117.48Z" fill="#494d75" fill-rule="evenodd"/>
      </g>
      <g id="am2271">
        <path d="M1932.57,253.6c-3.08-2.28-3.78-6.66-1.59-9.82,2.12-3.04,6.27-3.73,9.24-1.53l112.88,83.76-7.83,11.24-112.7-83.64Z" fill="#494d75" fill-rule="evenodd"/>
      </g>
      <g id="am2272">
        <path d="M2150.51,374.73h39.16v94.54h-39.16v-94.54Z" fill="#494d75" fill-rule="evenodd"/>
      </g>
      <g id="am2273">
        <path d="M2107.29,374.73h31.08v44.86h-31.08v-44.86Z" fill="#323858" fill-rule="evenodd"/>
      </g>
      <g id="am2274">
        <path d="M2053.09,326.14h150.27v24.92h-150.27v-24.92Z" fill="#f3ab94" fill-rule="evenodd"/>
      </g>
      <g id="am2275">
        <path d="M2053.09,326.14c0-10.17,8.55-18.41,19.1-18.41h113.09c9.99,0,18.08,8.24,18.08,18.41h-150.27Z" fill="#fff"/>
      </g>
      <g id="am2276">
        <g id="am2277">
          <path d="M2147.23,502.23c3.67,1.41,7.73,1.41,11.4,0,2.06-.8,4-2.04,5.66-3.73,1.67-1.69,2.89-3.66,3.67-5.77,1.38-3.72,1.38-7.86,0-11.59-.78-2.11-2-4.08-3.67-5.77-1.66-1.69-3.6-2.93-5.66-3.73-3.67-1.41-7.73-1.41-11.4,0-2.06.8-4,2.04-5.67,3.73-1.66,1.69-2.88,3.66-3.66,5.77-1.39,3.72-1.39,7.86,0,11.59.78,2.11,2,4.08,3.66,5.77,1.67,1.69,3.61,2.93,5.67,3.73ZM2131.68,465.31c1.6-1.63,3.34-3.04,5.18-4.22,9.78-6.31,22.37-6.31,32.15,0,1.84,1.18,3.58,2.6,5.18,4.22,1.61,1.63,2.99,3.41,4.15,5.28,6.2,9.95,6.2,22.76,0,32.71-1.16,1.87-2.54,3.64-4.15,5.28-1.6,1.63-3.34,3.03-5.18,4.22-9.78,6.31-22.37,6.31-32.15,0-1.84-1.19-3.58-2.6-5.18-4.22-1.61-1.63-2.99-3.41-4.16-5.28-6.2-9.95-6.2-22.76,0-32.71,1.17-1.87,2.55-3.64,4.16-5.28Z" fill="#fff"/>
        </g>
        <g id="am2278">
          <path d="M2167.95,492.73c-.78,2.11-2,4.08-3.67,5.77-1.66,1.69-3.6,2.93-5.66,3.73l10.38,10.56c1.84-1.19,3.58-2.6,5.18-4.22,1.61-1.63,2.99-3.41,4.15-5.28l-10.38-10.56Z" fill="#ec6e61" fill-rule="evenodd"/>
        </g>
        <g id="am2279">
          <path d="M2158.63,471.65c2.06.8,4,2.04,5.66,3.73,1.67,1.69,2.89,3.66,3.67,5.77l10.38-10.56c-1.16-1.87-2.54-3.64-4.15-5.28-1.6-1.63-3.34-3.04-5.18-4.22l-10.38,10.56Z" fill="#ec6e61" fill-rule="evenodd"/>
        </g>
        <g id="am2280">
          <path d="M2147.23,502.23c-2.06-.8-4-2.04-5.67-3.73-1.66-1.69-2.88-3.66-3.66-5.77l-10.39,10.56c1.17,1.87,2.55,3.64,4.16,5.28,1.6,1.63,3.34,3.03,5.18,4.22l10.38-10.56Z" fill="#ec6e61" fill-rule="evenodd"/>
        </g>
        <g id="am2281">
          <path d="M2147.23,471.65c-2.06.8-4,2.04-5.67,3.73-1.66,1.69-2.88,3.66-3.66,5.77l-10.39-10.56c1.17-1.87,2.55-3.64,4.16-5.28,1.6-1.63,3.34-3.04,5.18-4.22l10.38,10.56Z" fill="#ec6e61" fill-rule="evenodd"/>
        </g>
      </g>
      <g id="am2282">
        <path d="M1780.12,546.05h594.3l8.7,12.29c3.36,5.01-.14,11.83-6.07,11.83h-585.25l-11.69-24.12Z" fill="#323858" fill-rule="evenodd"/>
      </g>
      <g id="am2283">
        <path d="M1720.12,428.92c-1.41-2.76.56-6.06,3.62-6.06h70.9l75.18,147.3h-77.61l-72.1-141.24Z" fill="#323858" fill-rule="evenodd"/>
      </g>
      <g id="am2284">
        <path d="M2367.74,469.27h28.26l-21.8,76.96h-28.27l21.81-76.96Z" fill="#323858" fill-rule="evenodd"/>
      </g>
      <g id="am2285">
        <path d="M2074.37,374.73h21.79l-11.79,44.86h-21.78l11.78-44.86Z" fill="#494d75" fill-rule="evenodd"/>
      </g>
      <g id="am2286">
        <path d="M2040.87,279.14h94.58v6.66h-94.58v-6.66Z" fill="#494d75" fill-rule="evenodd"/>
      </g>
      <g id="am2287">
        <path d="M2056.05,207.53h64.22v6.66h-64.22v-6.66Z" fill="#494d75" fill-rule="evenodd"/>
      </g>
      <g id="am2288">
        <path d="M2053.09,264.97h3.3v17.49h-3.3v-17.49Z" fill="#494d75" fill-rule="evenodd"/>
      </g>
      <g id="am2289">
        <path d="M2048.02,242.82h13.46v23.03h-13.46v-23.03Z" fill="#494d75" fill-rule="evenodd"/>
      </g>
      <g id="am2290">
        <path d="M2074.76,225.93h8.94v23.65h-8.94v-23.65Z" fill="#494d75" fill-rule="evenodd"/>
      </g>
      <g id="am2291">
        <path d="M2053.09,351.06h150.27v10.19h-150.27v-10.19Z" fill="#d6e9f4" fill-rule="evenodd"/>
      </g>
      <g id="am2292">
        <path d="M2072.19,307.74c-10.55,0-19.1,8.24-19.1,18.41h43.02v-18.41h-23.92Z" fill="#d6e9f4"/>
      </g>
      <g id="am2293">
        <path d="M2053.09,326.14h43.07v24.92h-43.07v-24.92Z" fill="#f18c67" fill-rule="evenodd"/>
      </g>
      <g id="am2294">
        <path d="M2053.09,419.59h43.02v49.68h-43.02v-49.68Z" fill="#d6e9f4" fill-rule="evenodd"/>
      </g>
      <g id="am2295">
        <g id="am2296">
          <path d="M2031.48,502.23c3.67,1.41,7.73,1.41,11.4,0,2.06-.8,4-2.04,5.67-3.73,1.66-1.69,2.88-3.66,3.66-5.77,1.39-3.72,1.39-7.86,0-11.59-.78-2.11-2-4.08-3.66-5.77-1.67-1.69-3.61-2.93-5.67-3.73-3.67-1.41-7.73-1.41-11.4,0-2.06.8-4,2.04-5.66,3.73-1.67,1.69-2.89,3.66-3.67,5.77-1.39,3.72-1.39,7.86,0,11.59.78,2.11,2,4.08,3.67,5.77,1.66,1.69,3.6,2.93,5.66,3.73ZM2015.93,465.31c1.6-1.63,3.34-3.04,5.18-4.22,9.78-6.31,22.37-6.31,32.15,0,1.84,1.18,3.58,2.6,5.18,4.22,1.61,1.63,2.99,3.41,4.16,5.28,6.2,9.95,6.2,22.76,0,32.71-1.17,1.87-2.55,3.64-4.16,5.28-1.6,1.63-3.34,3.03-5.18,4.22-9.78,6.31-22.37,6.31-32.15,0-1.84-1.19-3.58-2.6-5.18-4.22-1.61-1.63-2.99-3.41-4.15-5.28-6.21-9.95-6.21-22.76,0-32.71,1.16-1.87,2.54-3.64,4.15-5.28Z" fill="#fff"/>
        </g>
        <g id="am2297">
          <path d="M2052.2,492.73c-.78,2.11-2,4.08-3.66,5.77-1.67,1.69-3.61,2.93-5.67,3.73l10.38,10.56c1.84-1.19,3.58-2.6,5.18-4.22,1.61-1.63,2.99-3.41,4.16-5.28l-10.39-10.56Z" fill="#ec6e61" fill-rule="evenodd"/>
        </g>
        <g id="am2298">
          <path d="M2042.88,471.65c2.06.8,4,2.04,5.67,3.73,1.66,1.69,2.88,3.66,3.66,5.77l10.39-10.56c-1.17-1.87-2.55-3.64-4.16-5.28-1.6-1.63-3.34-3.04-5.18-4.22l-10.38,10.56Z" fill="#ec6e61" fill-rule="evenodd"/>
        </g>
        <g id="am2299">
          <path d="M2031.48,502.23c-2.06-.8-4-2.04-5.66-3.73-1.67-1.69-2.89-3.66-3.67-5.77l-10.38,10.56c1.16,1.87,2.54,3.64,4.15,5.28,1.6,1.63,3.34,3.03,5.18,4.22l10.38-10.56Z" fill="#ec6e61" fill-rule="evenodd"/>
        </g>
        <g id="am2300">
          <path d="M2031.48,471.65c-2.06.8-4,2.04-5.66,3.73-1.67,1.69-2.89,3.66-3.67,5.77l-10.38-10.56c1.16-1.87,2.54-3.64,4.15-5.28,1.6-1.63,3.34-3.04,5.18-4.22l10.38,10.56Z" fill="#ec6e61" fill-rule="evenodd"/>
        </g>
      </g>
      <g id="am2301">
        <path d="M1871.83,493.88c5.13,0,9.29,4.23,9.29,9.45s-4.16,9.45-9.29,9.45-9.29-4.23-9.29-9.45,4.16-9.45,9.29-9.45Z" fill="#d6e9f4" fill-rule="evenodd"/>
      </g>
      <g id="am2302">
        <path d="M1966.46,493.88c5.13,0,9.3,4.23,9.3,9.45s-4.17,9.45-9.3,9.45-9.29-4.23-9.29-9.45,4.16-9.45,9.29-9.45Z" fill="#d6e9f4" fill-rule="evenodd"/>
      </g>
      <g id="am2303">
        <path d="M1920.42,493.88c5.12,0,9.29,4.23,9.29,9.45s-4.17,9.45-9.29,9.45-9.3-4.23-9.3-9.45,4.17-9.45,9.3-9.45Z" fill="#d6e9f4" fill-rule="evenodd"/>
      </g>
    </g>
    <g>
      <g id="am2197">
        <g id="am2198">
          <path d="M2327.98,437.79l29.75,3.28-2.34,22-29.75-3.28,2.34-22Z" fill="#494d75" fill-rule="evenodd"/>
        </g>
        <g id="am2199">
          <path d="M2326.1,456.02l13.39,1.47-2.17,20.39-13.38-1.48,2.16-20.38Z" fill="#494d75" fill-rule="evenodd"/>
        </g>
        <g id="am2200">
          <path d="M2341.3,459.56l12.9-3.89,5.71,19.66-12.9,3.89-5.71-19.66Z" fill="#494d75" fill-rule="evenodd"/>
        </g>
        <g id="am2201">
          <path d="M2331.98,427.05c-2.45-2.11-6.12-1.79-8.18.71l-15.65,21.82c-1.27,1.76-.97,4.22.66,5.63,1.63,1.39,4.03,1.27,5.52-.27l18.38-19.14c2.18-2.62,1.85-6.54-.73-8.74h0Z" fill="#fff" fill-rule="evenodd"/>
        </g>
        <g id="am2202">
          <path d="M2344.8,416.83c.9-2.5,1.41-8.45-1.34-9.65-6.21-2.72-18.56,17.73-19.05,20.18-.8,3.95,3.01,8.62,7.12,8.88,5.48.35,11.45-14.33,13.27-19.4Z" fill="#fff"/>
        </g>
        <g id="am2203">
          <path d="M2341.75,407.46s-13.47,23.76-15.87,36.04c0,0,19.4,9.43,29.83,6.96,0,0,10.69-29.58,9.32-33.72-1.35-4.02-14.82-11.92-23.28-9.28Z" fill="#ec6e61"/>
        </g>
        <g id="am2204">
          <path d="M2368.84,425.36c.3-2.65-.54-8.56-3.5-9.09-6.66-1.18-14.03,21.62-13.96,24.12.13,4.03,4.88,7.67,8.95,6.96,5.41-.95,7.89-16.64,8.5-21.99Z" fill="#fff"/>
        </g>
        <g id="am2205">
          <path d="M2362.91,441.11c-1.65-2.8-5.22-3.71-7.97-2.03l-21.78,15.45c-1.76,1.24-2.28,3.66-1.17,5.54,1.09,1.85,3.4,2.54,5.3,1.57l23.51-12c2.89-1.76,3.83-5.57,2.11-8.52h0Z" fill="#fff" fill-rule="evenodd"/>
        </g>
        <g id="am2206">
          <path d="M2309.56,457.82c-1.79-.98-3.59-1.31-5.56-.16-1.06.62-3.74,2.57-4.47.25-.83-2.67,2.87-3.57,4.95-4.1.57-1.87,2.39-6.31,4.77-6.1,2.45.22,5.34,4.35,6.43,6.3-1.72,2.64-4.33,2.91-6.12,3.81Z" fill="#2868a8"/>
        </g>
        <g id="am2207">
          <path d="M2348.6,407.14c4.41.56,9.14,2.9,12.65,5.47-.19.76-.51,1.51-.98,2.18-2.12,3.04-6.38,3.68-9.5,1.43-2.95-2.13-3.85-6.07-2.17-9.07Z" fill="#fff"/>
        </g>
        <g id="am2208">
          <path d="M2355.14,401.07l5.6,2.34-3.59,8.85c-.71,1.76-2.7,2.6-4.43,1.88-1.36-.57-2-2.15-1.45-3.53l3.86-9.54Z" fill="#f18c67" fill-rule="evenodd"/>
        </g>
        <g id="am2209">
          <path d="M2359.59,384.53c6.36.44,9.12,2.11,9.36,5.44.27,3.6.21,7.26-1.91,9.81-1.17,1.41-2.51,2.62-3.63,4.09-.28.36-.73,1.34-1.26,1.32-1.37-.07-2.86-3.58-3.36-4.65-2.02-4.3-6.33-16.49.8-16Z" fill="#494d75"/>
        </g>
        <g id="am2210">
          <path d="M2347.92,403.66c.05-.17.07-.32.07-.44,0-.54-.43-.75-.35-1.16.04-.24.39-.22.51-.32,0,0-.3-.2-.38-.29-.46-.54.38-.76.6-1.49,0-.03-.02-.05-.04-.08-.47-.3-1.48-.5-1.44-1.21.04-.57.93-.96,1.54-1.45.38-.3.53-.79.7-1.22.34-.87.18-1.43.35-2.35.49-2.62,1.78-5.79,4.61-6.48,2.74-.66,4.94,1.19,5.43,3.73.95,4.86,3.06,10.52,2.39,11.21-.96.98-2.21,3.08-3.43,3.59-2.44,1.03-4.68.96-7.34.9-1.04-.03-2.85-.08-3.58-1.14-.43-.63.16-1.15.34-1.78h0Z" fill="#f3ab94" fill-rule="evenodd"/>
        </g>
        <g id="am2211">
          <path d="M2363.96,402.99c-.55-.95-1.9-1.2-3.02-.54s-1.58,1.98-1.03,2.93c.54.96,1.9,1.2,3.02.54,1.12-.66,1.57-1.97,1.03-2.93Z" fill="#f3ab94" fill-rule="evenodd"/>
        </g>
        <g id="am2212">
          <path d="M2361.62,395.75l-11.95-10.19s-10.16,1.84-8.96,3.31c4.9,6.01,20.91,6.87,20.91,6.87Z" fill="#ec6e61"/>
        </g>
        <g id="am2213">
          <path d="M2366.53,400.37s-9.84-8.05-17.29-14.43c0,0,8.41-10.07,17.97-.82,7.97,7.7-.69,15.25-.69,15.25Z" fill="#2868a8"/>
        </g>
      </g>
      <g id="am2214">
        <g id="am2215">
          <path d="M2220.08,434.74l29.75,3.28-5.11,48.03-29.74-3.28,5.1-48.03Z" fill="#494d75" fill-rule="evenodd"/>
        </g>
        <g id="am2216">
          <path d="M2245.7,435.8c2.13-2.44,5.81-2.67,8.21-.5l18.58,19.3c1.5,1.56,1.56,4.03.13,5.67-1.41,1.62-3.81,1.85-5.5.54l-20.91-16.24c-2.53-2.27-2.75-6.2-.52-8.76h0Z" fill="#fff" fill-rule="evenodd"/>
        </g>
        <g id="am2217">
          <path d="M2245.46,420.78c.47-2.62,2.99-8.03,5.96-7.65,6.7.86,7.17,24.86,6.39,27.21-1.28,3.82-6.88,5.88-10.57,3.99-4.9-2.52-2.74-18.25-1.78-23.55Z" fill="#fff"/>
        </g>
        <g id="am2218">
          <path d="M2252.76,414.26s-.21,27.44-4.27,39.25c0,0-21.42-1.87-29.18-9.37,0,0,5.51-31.02,8.75-33.88,1.2-1.04,4.18-1.68,7.75-1.7,4.33-.03,9.51.85,13.42,2.99,1.36.74,2.56,1.64,3.52,2.71Z" fill="#ec6e61"/>
        </g>
        <g id="am2219">
          <path d="M2220.49,415.74c1.05-2.43,4.73-7.1,7.54-6.03,6.33,2.42,1.33,25.87.03,27.99-2.11,3.41-8.02,4.1-11.18,1.39-4.19-3.6,1.48-18.41,3.61-23.35Z" fill="#fff"/>
        </g>
        <g id="am2220">
          <path d="M2216.86,434.75c2.06-2.51,5.73-2.84,8.19-.74l19.12,18.74c1.54,1.52,1.67,3.99.29,5.66-1.37,1.66-3.76,1.97-5.49.71l-21.35-15.62c-2.59-2.2-2.93-6.12-.77-8.74h0Z" fill="#fff" fill-rule="evenodd"/>
        </g>
        <g id="am2221">
          <path d="M2272.24,462.96c1.63-1.23,3.36-1.83,5.48-.98,1.14.46,4.06,1.99,4.45-.42.45-2.76-3.35-3.11-5.48-3.32-.83-1.76-3.26-5.89-5.6-5.33-2.38.56-4.66,5.08-5.46,7.16,2.08,2.37,4.69,2.25,6.6,2.89Z" fill="#2868a8"/>
        </g>
        <g id="am2222">
          <path d="M2249.24,411.55c-3.91-2.13-9.09-3.01-13.42-2.99-.29.74-.44,1.53-.44,2.36,0,3.73,3.11,6.76,6.94,6.76,3.61,0,6.59-2.7,6.92-6.13Z" fill="#fff"/>
        </g>
        <g id="am2223">
          <path d="M2247.36,402.75l-5.89-1.38-2.11,9.33c-.43,1.85.71,3.7,2.54,4.13,1.43.34,2.85-.57,3.18-2.03l2.28-10.06Z" fill="#f18c67" fill-rule="evenodd"/>
        </g>
        <g id="am2224">
          <path d="M2253.14,386.65c-5.44-3.39-8.65-3.65-10.74-1.08-2.27,2.8-4.29,5.8-4.02,9.13.16,1.84.56,3.62.64,5.48.02.45-.17,1.53.28,1.81,1.16.75,4.36-1.23,5.38-1.8,4.1-2.32,14.54-9.73,8.45-13.53Z" fill="#494d75"/>
        </g>
        <g id="am2225">
          <path d="M2251.78,409.12c.05-.17.12-.3.19-.4.32-.44.78-.35.95-.74.1-.23-.2-.42-.23-.56,0,0,.36,0,.47-.02.69-.15.13-.83.36-1.56.03-.02.05-.03.08-.05.55.04,1.49.46,1.86-.14.29-.49-.21-1.33-.44-2.1-.13-.45.03-.95.13-1.4.21-.92.66-1.27,1.04-2.12,1.09-2.42,1.85-5.78-.07-8-1.86-2.15-4.71-1.94-6.56-.16-3.53,3.41-8.48,6.78-8.32,7.74.21,1.37.05,3.81.75,4.95,1.41,2.27,3.27,3.54,5.48,5.05.87.59,2.36,1.61,3.57,1.17.7-.25.53-1.04.73-1.65h0Z" fill="#f3ab94" fill-rule="evenodd"/>
        </g>
        <g id="am2226">
          <path d="M2239.07,399.13c.99-.45,2.23.15,2.77,1.34.53,1.19.16,2.53-.83,3-1,.45-2.23-.15-2.77-1.34-.54-1.2-.16-2.53.83-3Z" fill="#f3ab94" fill-rule="evenodd"/>
        </g>
        <g id="am2227">
          <path d="M2245.09,394.6l15.54-1.27s7.25,7.47,5.43,7.97c-7.42,2.02-20.97-6.7-20.97-6.7Z" fill="#ec6e61"/>
        </g>
        <g id="am2228">
          <path d="M2238.47,395.48s12.6-.77,22.3-1.61c0,0-1.13-13.16-14.19-11.24-10.89,1.6-8.11,12.85-8.11,12.85Z" fill="#2868a8"/>
        </g>
      </g>
      <g id="am2304">
        <g id="am2305">
          <path d="M2425.2,734.01c-28.5,0-62.18-2.56-100.98-9.56-38.56-6.96-64-42.11-75.62-104.47-10.42-55.91-7.47-121.44-3.16-166.56.01-.15.04-.3.09-.44,4.44-14.9,37.86-14.13,50.36-12.57,3.51.44,7.02,1.1,10.45,1.95,9.76,2.44,18.32,8.87,23.51,17.64,21.17,35.76,66.61,61.48,110.57,86.35,42.65,24.14,86.75,49.1,107.68,83.16,10.83,17.63,12.49,38.5,4.55,57.24-8.67,20.45-27.33,35.41-49.92,40.02-18.94,3.87-44.82,7.24-77.52,7.24ZM2249.87,454.1c-7.12,74.79-13.96,249.8,75.14,265.88,82.63,14.92,141.78,9.51,176.84,2.34,21.16-4.32,38.62-18.29,46.7-37.37,7.35-17.36,5.81-36.69-4.23-53.04-20.32-33.07-63.91-57.74-106.07-81.6-44.46-25.16-90.44-51.18-112.22-87.98-4.58-7.75-12.15-13.42-20.75-15.57-3.25-.81-6.59-1.43-9.93-1.85-17.16-2.13-42.38-.11-45.49,9.19Z" fill="#fff"/>
        </g>
        <g id="am2306">
          <path d="M2349.7,702.21c-15.05,0-30.38-2.6-46.06-8.81-14.94-5.9-31.72-13.45-41.91-28.36-.7-1.03-.45-2.44.56-3.16,1.01-.72,2.4-.46,3.11.57,9.47,13.86,25.54,21.06,39.86,26.72,55.91,22.11,108-3.36,158.36-28,4.73-2.31,9.46-4.63,14.18-6.9,16-7.7,46.57-15.78,65.19-6.51,7.66,3.81,12.5,10.16,14.4,18.86.27,1.22-.49,2.44-1.69,2.71-1.2.27-2.39-.5-2.66-1.72-1.59-7.28-5.63-12.59-12.01-15.76-17.08-8.51-46.67-.51-61.32,6.54-4.72,2.27-9.43,4.57-14.16,6.89-37.3,18.24-75.53,36.94-115.85,36.94Z" fill="#fff"/>
        </g>
        <g id="am2307">
          <path d="M2470.6,732.06c-1.16,0-2.13-.91-2.22-2.1-.09-1.25.83-2.34,2.06-2.43,11.72-.9,20.32-7.19,25.55-18.72,9.64-21.25,4.5-52.58-6.15-67.42-24.16-33.68-52.27-50.81-79.46-67.37-38.26-23.3-77.81-47.4-105.53-117.5-.97-2.45-2.12-4.18-3.56-6.37-.5-.76-1.03-1.56-1.57-2.43-2.33-3.71-11.12-4.61-17.09-1.76-3.44,1.64-7.09,5.06-4.91,12,.37,1.19-.27,2.47-1.45,2.85-1.17.38-2.43-.28-2.8-1.47-2.39-7.63.32-14.17,7.27-17.49,7.33-3.5,18.86-2.77,22.75,3.42.53.84,1.04,1.61,1.52,2.35,1.46,2.22,2.85,4.32,3.99,7.21,27.15,68.69,64.33,91.33,103.68,115.3,27.57,16.79,56.08,34.16,80.78,68.59,11.38,15.85,16.88,49.32,6.6,72-5.87,12.95-15.99,20.33-29.26,21.34-.06,0-.11,0-.17,0Z" fill="#fff"/>
        </g>
        <g id="am2308">
          <path d="M2371.08,731.17c-.69,0-1.39-.02-2.11-.07-1.23-.08-2.16-1.16-2.09-2.41.08-1.25,1.16-2.19,2.37-2.12,7.17.46,12.26-1.69,15.57-6.58,9.25-13.65,1.93-44.27-4.04-57.63-13.47-30.14-29.79-51.58-45.57-72.31-25.65-33.7-49.88-65.53-61.84-130.63-.23-1.23.57-2.42,1.78-2.65,1.21-.23,2.38.58,2.6,1.81,11.76,64.03,35.67,95.44,60.98,128.69,15.94,20.94,32.42,42.59,46.1,73.21,5.69,12.74,14.52,46.05,3.65,62.09-3.87,5.71-9.72,8.6-17.42,8.6Z" fill="#fff"/>
        </g>
        <g id="am2309">
          <path d="M2319.89,638.75c-20.82,0-43.8-6.06-69.8-22.19-1.05-.65-1.38-2.05-.74-3.12.64-1.07,2.01-1.41,3.07-.76,66.22,41.08,110.64,15.61,153.59-9.03,29.34-16.83,57.06-32.73,88.87-24.14,1.19.32,1.9,1.56,1.58,2.78-.32,1.21-1.54,1.93-2.73,1.61-30.06-8.12-57.01,7.34-85.54,23.71-26.06,14.95-54.29,31.14-88.3,31.14Z" fill="#fff"/>
        </g>
        <g id="am2310">
          <path d="M2295.96,562.97c-.18,0-.37,0-.55,0-19.21-.16-36.55-9.09-52.99-27.32-.83-.92-.77-2.36.14-3.21.91-.85,2.32-.79,3.15.14,34.58,38.33,65.7,26.09,98.64,13.12,23.08-9.08,46.95-18.48,73.31-11.36,1.19.32,1.9,1.57,1.58,2.78-.31,1.21-1.54,1.93-2.73,1.61-24.95-6.74-48.13,2.38-70.55,11.2-17.03,6.7-33.13,13.04-50,13.04Z" fill="#fff"/>
        </g>
        <g id="am2311">
          <path d="M2294.01,495.3c-17.09,0-33.89-3.56-49.14-14.29-1.01-.71-1.27-2.13-.57-3.16.7-1.03,2.09-1.29,3.1-.58,29.63,20.85,66.36,12.98,98.76,6.04,1.2-.26,2.39.53,2.64,1.75.25,1.23-.52,2.43-1.72,2.69-17.02,3.65-35.2,7.54-53.08,7.54Z" fill="#fff"/>
        </g>
      </g>
      <g id="am2312">
        <g id="am2313">
          <g id="am2314">
            <path d="M2447.95,674c3.08-5.15,8.41-9.79,13.97-11.98,1.15-.44,4.54-2.08,5.58-.91,1.56,1.75.21,16.29-1.84,17.26-2.64,1.24-15.29-2.79-17.71-4.38Z" fill="#ec6e61"/>
          </g>
          <g id="am2315">
            <path d="M2447.06,691.71c4.11,4.36,10.28,7.73,16.18,8.65,1.21.18,4.87,1.04,5.64-.33,1.15-2.05-3.23-15.96-5.43-16.46-2.84-.64-14.34,6.06-16.38,8.14Z" fill="#ec6e61"/>
          </g>
          <g id="am2316">
            <path d="M2500.15,665.71c-2.49-8.94,1.5-15.29,8.86-20.05.6,4.68,1.46,10.76-1.55,16,5.84-.95,10.04.37,14.08,2.28-5.01,7.58-14.53,5.53-21.39,1.77Z" fill="#323858"/>
          </g>
          <g id="am2317">
            <path d="M2453.68,668.77c34.4,5.29,44.75-13.22,50.78-6.63,4.75,5.19-21.92,33.9-52.05,31.92-15.79-1.04-35.96-11.76-29.97-22.68,6-10.94,15.6-5.01,31.24-2.61Z" fill="#494d75" fill-rule="evenodd"/>
          </g>
          <g id="am2318">
            <path d="M2489.05,672c-12.64,10.42-27.99,13.78-44.16,8.4,4.94-1.27,10.85-4.7,16.04-4.13,3.56.39,1.42,5.2,4.58,4.79,8.17-1.07,15.46-7.55,23.55-9.05Z" fill="#323858"/>
          </g>
        </g>
        <g id="am2319">
          <g id="am2320">
            <path d="M2392.05,655.21c-4.29,4.16-10.61,7.24-16.55,7.88-1.21.14-4.91.82-5.61-.59-1.06-2.1,3.94-15.78,6.17-16.18,2.86-.51,14.05,6.72,16,8.89Z" fill="#ec6e61"/>
          </g>
          <g id="am2321">
            <path d="M2397.42,638.34c-2.86-5.28-7.96-10.17-13.43-12.61-1.12-.5-4.44-2.29-5.53-1.17-1.62,1.67-.94,16.26,1.06,17.33,2.59,1.37,15.39-2.07,17.9-3.54Z" fill="#ec6e61"/>
          </g>
          <g id="am2322">
            <path d="M2339.53,649.48c.13,9.3-5.34,14.37-13.66,17.03.61-4.68,1.32-10.78,5.57-15.05-5.88-.61-9.59-3.01-13.02-5.91,6.76-6.01,15.44-1.52,21.11,3.92Z" fill="#323858"/>
          </g>
          <g id="am2323">
            <path d="M2385.19,658.76c-31.88-14.17-46.6.99-50.74-6.96-3.26-6.27,29.8-26.98,58.4-17.13,14.99,5.16,31.75,20.83,23.18,29.81-8.58,8.99-16.35.73-30.84-5.72Z" fill="#494d75" fill-rule="evenodd"/>
          </g>
          <g id="am2324">
            <path d="M2351.85,646.32c14.86-6.73,30.54-5.94,44.8,3.52-5.1-.07-11.69,1.69-16.55-.23-3.34-1.32-.04-5.4-3.2-5.83-8.17-1.12-16.84,3.22-25.04,2.53Z" fill="#323858"/>
          </g>
        </g>
        <g id="am2325">
          <g id="am2326">
            <path d="M2297.45,654.05c3.94,2.69,7.39,7.18,8.91,11.79.31.94,1.47,3.76.52,4.57-1.43,1.2-12.8-.41-13.48-2.11-.88-2.2,2.73-12.33,4.06-14.25Z" fill="#ec6e61"/>
          </g>
          <g id="am2327">
            <path d="M2283.59,652.7c-3.57,3.18-6.43,8.08-7.36,12.85-.19.98-.99,3.92.05,4.59,1.57,1.01,12.64-2.06,13.11-3.83.61-2.29-4.24-11.88-5.8-13.61Z" fill="#ec6e61"/>
          </g>
          <g id="am2328">
            <path d="M2302.11,696.77c7.11-1.71,11.95,1.76,15.43,7.91-3.69.33-8.5.82-12.5-1.83.54,4.78-.65,8.14-2.29,11.37-5.77-4.34-3.83-12-.63-17.45Z" fill="#323858"/>
          </g>
          <g id="am2329">
            <path d="M2301.35,658.89c-5.37,27.78,8.8,36.85,3.41,41.52-4.24,3.67-25.83-19.02-23.21-43.44,1.37-12.8,10.5-28.82,18.86-23.55,8.38,5.26,3.38,12.86.94,25.48Z" fill="#494d75" fill-rule="evenodd"/>
          </g>
          <g id="am2330">
            <path d="M2297.56,687.52c-7.72-10.64-9.83-23.24-5.02-36.19.82,4.06,3.31,8.99,2.68,13.18-.43,2.88-4.13.96-3.92,3.55.55,6.68,5.38,12.83,6.26,19.46Z" fill="#323858"/>
          </g>
        </g>
        <g id="am2331">
          <g id="am2332">
            <path d="M2549.31,653.55c4.35-1.93,9.92-2.51,14.55-1.34.95.24,3.91.74,4.07,1.99.23,1.87-7.18,10.79-8.96,10.47-2.29-.41-8.77-8.94-9.66-11.11Z" fill="#ec6e61"/>
          </g>
          <g id="am2333">
            <path d="M2540.78,664.76c.73,4.77,3.27,9.85,6.73,13.2.7.68,2.72,2.94,3.85,2.41,1.67-.81,5.05-11.97,3.83-13.32-1.58-1.74-12.13-2.7-14.4-2.29Z" fill="#ec6e61"/>
          </g>
          <g id="am2334">
            <path d="M2587.28,672.39c2.38-7.03,7.85-9.33,14.82-9.03-1.71,3.35-3.87,7.75-8.21,9.78,4.26,2.09,6.42,4.91,8.21,8.05-6.68,2.65-12.01-3.12-14.82-8.79Z" fill="#323858"/>
          </g>
          <g id="am2335">
            <path d="M2555.42,652.79c20.19,19.48,35.3,12.14,36.29,19.27.78,5.62-29.61,12.04-48.49-3.27-9.89-8.03-18.3-24.44-9.47-28.82,8.86-4.39,12.49,3.97,21.67,12.82Z" fill="#494d75" fill-rule="evenodd"/>
          </g>
          <g id="am2336">
            <path d="M2577.17,671.36c-12.98.95-24.55-3.98-32.74-15.04,3.81,1.47,9.24,1.97,12.38,4.76,2.16,1.91-1.41,4.07.86,5.27,5.84,3.1,13.53,2.23,19.51,5.01Z" fill="#323858"/>
          </g>
        </g>
        <g id="am2337">
          <g id="am2338">
            <path d="M2502.42,709.8c-.11,2.24,2.4,15.65,6.73,13.2,2.17-1.23,7.6-10.63,5.8-12.98-1.86-2.43-9.75-.38-12.53-.22Z" fill="#ec6e61"/>
          </g>
          <g id="am2339">
            <path d="M2571.2,703.2c-2.49-8.94,1.5-15.29,8.85-20.05.61,4.68,1.47,10.76-1.54,16,5.84-.95,10.03.37,14.08,2.29-5.01,7.58-14.53,5.52-21.39,1.76Z" fill="#323858"/>
          </g>
          <g id="am2340">
            <path d="M2500.68,690.56c2.75-2.85,6.36-4.69,9.94-6.2,1.04-.44,2.92-1.47,4.07-1.06,1.63.58-.7,3.33,1.63,3.31,4.42-.03,9.05-2.62,13.39-.74,1.11.48.99,1.67,1.61,2.56.61.89,2.28,1.44,3.27,1.75,2.08.65,4.52-.02,6.63-.15,3.28-.22,6.88-.09,10.15.27,3.17.35,5.19,3.43,8.29,3.68-3.44,2.01-10.38.25-14.25.29-10.17.13-20.32-.53-30.49.02-5.22.27-11.67,1.84-16.41-.86l2.19-2.86Z" fill="#323858"/>
          </g>
          <g id="am2341">
            <path d="M2512.16,688.55c15.81,0,64.39,5.65,64.39,12.62s-48.58,12.62-64.39,12.62-28.64-5.66-28.64-12.62,12.81-12.62,28.64-12.62Z" fill="#494d75" fill-rule="evenodd"/>
          </g>
          <g id="am2342">
            <path d="M2511.41,704.27c-1.49-1.37-.57-9.4,1.67-9.4s13.17,3.1,13.31,4.7c.14,1.6-13.48,6.07-14.97,4.69Z" fill="#ec6e61"/>
          </g>
        </g>
        <g id="am2343">
          <g id="am2344">
            <path d="M2337.96,693.23c-.79,2.09-2.54,15.63,2.32,14.67,2.44-.47,10.49-7.67,9.51-10.47-1.02-2.91-9.15-3.48-11.83-4.2Z" fill="#ec6e61"/>
          </g>
          <g id="am2345">
            <path d="M2405.29,708.93c.4-9.29,6.14-14.05,14.6-16.22-.87,4.63-1.93,10.69-6.41,14.7,5.84.95,9.41,3.56,12.67,6.66-7.09,5.6-15.5.61-20.86-5.15Z" fill="#323858"/>
          </g>
          <g id="am2346">
            <path d="M2342.23,674.41c3.5-1.83,7.49-2.42,11.35-2.71,1.12-.08,3.23-.46,4.19.29,1.37,1.07-1.69,2.94.53,3.67,4.2,1.38,9.41.4,12.94,3.57.9.81.43,1.91.73,2.94.31,1.04,1.72,2.1,2.57,2.71,1.77,1.29,4.29,1.43,6.34,1.97,3.18.84,6.55,2.12,9.55,3.5,2.9,1.34,3.86,4.91,6.74,6.14-3.88.8-9.93-3.08-13.63-4.28-9.69-3.13-19.13-6.99-28.96-9.72-5.03-1.4-11.65-1.97-15.31-6.06l2.95-2.02Z" fill="#323858"/>
          </g>
          <g id="am2347">
            <path d="M2353.75,676.15c15.02,5.06,59.4,25.93,57.25,32.54-2.14,6.62-50.01-3.52-65.03-8.57-15.02-5.05-25.45-14.51-23.3-21.13,2.15-6.62,16.06-7.89,31.08-2.84Z" fill="#494d75" fill-rule="evenodd"/>
          </g>
          <g id="am2348">
            <path d="M2348.19,690.85c-.99-1.78,2.36-9.11,4.48-8.39,2.12.71,11.55,7.15,11.19,8.71-.36,1.57-14.68,1.46-15.67-.32Z" fill="#ec6e61"/>
          </g>
        </g>
      </g>
      <g id="am2355">
        <g id="am2356">
          <path d="M2216.08,746.92c-.25-.05-.38-.07-.38-.07-6.83-12.55-9.54-28.39-1.32-41.08,9.29-14.33,26.58-11.4,29.91,4.71,4.18-19.66,12.87-36.88,33.02-43.27,28.53-9.03,43.07,22.01,32.48,45.63,15.8-17.46,49.26-29.8,52.32,4.95,9.26-24.76,41.27-30.59,47.86-1.17,14.71-17.99,33.19-18.44,44.08,2.63,19.86-34.9,33.13-7.18,55.42,2.33,1.91-8.99,2.36-22.1,8.8-29.05,25.37-27.35,58.85.13,61.57,30.64,9.04-35.19,56.04-40.42,53.77,4.91,7.24-27.15,46.21,2.11,28.27,18.83h-445.81Z" fill="#61c3e2"/>
        </g>
        <g id="am2357">
          <path d="M2238.28,675.35c3.89,5.51,5.02,11.47,2.5,13.3-2.52,1.84-7.71-1.14-11.6-6.65-3.9-5.51-5.02-11.47-2.5-13.3,2.51-1.84,7.7,1.14,11.6,6.65Z" fill="#61c3e2" fill-rule="evenodd"/>
        </g>
        <g id="am2358">
          <path d="M2649.76,696.65c-3.08,6.01-7.81,9.72-10.55,8.25-2.75-1.45-2.47-7.51.61-13.53,3.09-6.02,7.81-9.72,10.56-8.26,2.74,1.46,2.47,7.52-.62,13.54Z" fill="#61c3e2" fill-rule="evenodd"/>
        </g>
        <g id="am2359">
          <path d="M2628.93,680.08c-1.12,2.2-2.85,3.54-3.85,3.01-1-.54-.9-2.74.22-4.94,1.12-2.19,2.85-3.54,3.85-3.01,1,.53.9,2.74-.22,4.93Z" fill="#61c3e2" fill-rule="evenodd"/>
        </g>
        <g id="am2360">
          <path d="M2208.13,689.52c1.79,1.66,2.63,3.7,1.87,4.55-.76.85-2.84.18-4.63-1.48-1.79-1.67-2.63-3.71-1.87-4.56.77-.85,2.84-.18,4.63,1.49Z" fill="#61c3e2" fill-rule="evenodd"/>
        </g>
        <g id="am2361">
          <path d="M2530.68,670.19c1.51,1.93,2.03,4.09,1.14,4.79-.89.72-2.83-.27-4.35-2.21-1.51-1.94-2.02-4.1-1.13-4.8.88-.72,2.82.27,4.34,2.22Z" fill="#61c3e2" fill-rule="evenodd"/>
        </g>
        <g id="am2362">
          <path d="M2401.42,676.18c1.51,1.93,2.02,4.09,1.13,4.8-.88.71-2.83-.28-4.34-2.22-1.52-1.93-2.03-4.09-1.14-4.8.88-.72,2.83.28,4.35,2.22Z" fill="#61c3e2" fill-rule="evenodd"/>
        </g>
      </g>
      <g>
        <g id="am2421">
          <path d="M2241,449.22c2.97,1.77,4.12,3.21,5.35,5.19,2.01.87,4.59,2.9,5.93,4.59,1.84,2.31.11,5.24-1.7,6.87-.87.79-2.13.94-3.17.4-2.91-1.54-5.6-3.68-5.21-5.88-1.38-.78-6.87-1.06-7.1-3.01-.27-2.32,3.45-6.42,5.92-8.15Z" fill="#2868a8"/>
        </g>
        <g id="am2422">
          <path d="M2337.47,450.52c-3.22,1.93-4.46,3.49-5.79,5.64-2.17.94-4.97,3.14-6.42,4.97-2,2.51-.12,5.68,1.84,7.45.95.85,2.31,1.03,3.44.43,3.16-1.67,6.08-3.99,5.65-6.37,1.5-.84,7.46-1.14,7.7-3.27.29-2.52-3.74-6.96-6.42-8.84Z" fill="#2868a8"/>
        </g>
        <g id="am2423">
          <path d="M2274.89,459.77c-2.57-.64-5.1.67-5.63,2.91-.54,2.24,1.12,4.59,3.69,5.22,2.57.64,5.1-.66,5.63-2.91.54-2.24-1.12-4.59-3.69-5.22Z" fill="#2868a8" fill-rule="evenodd"/>
        </g>
        <g id="am2424">
          <path d="M2306.69,455.59c2.55-.44,4.92,1.01,5.28,3.22.37,2.22-1.4,4.38-3.95,4.81-2.55.44-4.92-1.01-5.28-3.23-.37-2.22,1.4-4.37,3.95-4.8Z" fill="#2868a8" fill-rule="evenodd"/>
        </g>
      </g>
      <path d="M1822.09,731.83c45.58,0,82.54,6.72,82.54,15.02h-165.07c0-8.3,36.95-15.02,82.54-15.02Z" fill="#0ca9d5"/>
      <g id="am2349">
        <g id="am2350">
          <path d="M1766.78,699.56c-1.27,1.83-6.17,14.55-1.22,14.81,2.48.14,12-4.88,11.72-7.84-.3-3.06-8.06-5.61-10.49-6.97Z" fill="#ec6e61"/>
        </g>
        <g id="am2351">
          <path d="M1828.42,731.3c2.58-8.92,9.28-12.12,18-12.16-1.94,4.29-4.39,9.9-9.69,12.69,5.43,2.36,8.29,5.77,10.72,9.57-8.21,3.7-15.19-3.21-19.03-10.11Z" fill="#323858"/>
        </g>
        <g id="am2352">
          <path d="M1775.39,682.35c3.83-.93,7.84-.52,11.66.15,1.11.19,3.25.34,4,1.31,1.08,1.38-2.33,2.44-.36,3.69,3.76,2.38,9.04,2.7,11.72,6.64.69,1-.04,1.95.02,3.03.05,1.09,1.17,2.46,1.85,3.26,1.41,1.68,3.83,2.43,5.69,3.46,2.89,1.61,5.86,3.66,8.44,5.75,2.49,2.01,2.59,5.71,5.09,7.61-3.96-.18-8.91-5.43-12.22-7.49-8.66-5.41-16.91-11.47-25.8-16.54-4.56-2.6-10.85-4.78-13.44-9.63l3.35-1.23Z" fill="#323858"/>
        </g>
        <g id="am2353">
          <path d="M1786.16,686.86c13.39,8.58,51.52,39.72,47.86,45.62-3.65,5.89-47.71-15.68-61.08-24.26-13.39-8.58-21.27-20.32-17.62-26.21,3.65-5.9,17.46-3.72,30.84,4.86Z" fill="#494d75" fill-rule="evenodd"/>
        </g>
        <g id="am2354">
          <path d="M1777.28,699.75c-.54-1.97,4.45-8.26,6.34-7.05,1.89,1.22,9.51,9.77,8.8,11.2-.72,1.43-14.6-2.18-15.14-4.15Z" fill="#ec6e61"/>
        </g>
      </g>
      <g id="am2425" opacity=".48">
        <g id="am2426">
          <path d="M2116.97,637.77c.11,1.52-1.45,10.61-4.4,8.99-1.48-.8-5.25-7.09-4.06-8.7,1.23-1.67,6.59-.37,8.46-.29Z" fill="#ec6e61"/>
        </g>
        <g id="am2427">
          <path d="M2070.44,634.09c1.58-6.07-1.18-10.32-6.2-13.45-.36,3.17-.87,7.28,1.22,10.79-3.96-.57-6.78.37-9.5,1.71,3.46,5.07,9.88,3.57,14.47.95Z" fill="#323858"/>
        </g>
        <g id="am2428">
          <path d="M2117.94,624.76c-1.89-1.9-4.35-3.1-6.78-4.08-.71-.28-1.99-.96-2.76-.67-1.1.41.5,2.24-1.07,2.25-2.99.04-6.15-1.67-9.05-.35-.74.34-.66,1.14-1.06,1.75-.4.61-1.53,1-2.19,1.22-1.4.47-3.05.04-4.48-.03-2.22-.11-4.65.02-6.85.3-2.14.27-3.47,2.37-5.57,2.57,2.35,1.32,7.02.05,9.64.05,6.87-.04,13.72-.58,20.6-.34,3.53.14,7.91,1.12,11.07-.76l-1.51-1.91Z" fill="#323858"/>
        </g>
        <g id="am2429">
          <path d="M2110.17,623.52c-10.69.17-43.45,4.53-43.37,9.24.07,4.71,32.96,7.98,43.64,7.81,10.69-.17,19.29-4.14,19.21-8.84-.07-4.71-8.8-8.39-19.48-8.21Z" fill="#494d75" fill-rule="evenodd"/>
        </g>
        <g id="am2430">
          <path d="M2110.85,634.14c.99-.94.28-6.37-1.23-6.34-1.51.03-8.86,2.24-8.94,3.32-.08,1.09,9.17,3.96,10.17,3.01Z" fill="#ec6e61"/>
        </g>
      </g>
      <g id="am2431" opacity=".48">
        <g id="am2432">
          <path d="M2764.47,721.56c.1,1.52-1.45,10.61-4.41,8.99-1.47-.81-5.25-7.1-4.06-8.71,1.23-1.66,6.59-.36,8.47-.28Z" fill="#ec6e61"/>
        </g>
        <g id="am2433">
          <path d="M2717.93,717.87c1.59-6.07-1.18-10.32-6.2-13.45-.36,3.16-.87,7.28,1.22,10.79-3.95-.58-6.78.37-9.49,1.71,3.46,5.07,9.88,3.57,14.47.95Z" fill="#323858"/>
        </g>
        <g id="am2434">
          <path d="M2765.43,708.54c-1.88-1.9-4.35-3.1-6.78-4.08-.71-.29-1.99-.96-2.76-.68-1.1.42.5,2.24-1.07,2.26-2.98.03-6.14-1.67-9.05-.35-.74.34-.65,1.14-1.05,1.75-.41.61-1.53,1-2.2,1.22-1.39.46-3.05.04-4.48-.03-2.22-.11-4.65,0-6.85.3-2.13.27-3.47,2.37-5.56,2.57,2.35,1.32,7.01.05,9.63.05,6.87-.04,13.73-.59,20.61-.34,3.52.13,7.91,1.12,11.08-.76l-1.52-1.91Z" fill="#323858"/>
        </g>
        <g id="am2435">
          <path d="M2757.66,707.31c-10.68.17-43.44,4.53-43.37,9.24.08,4.7,32.96,7.98,43.65,7.81,10.68-.18,19.28-4.14,19.21-8.84-.08-4.71-8.8-8.39-19.49-8.21Z" fill="#494d75" fill-rule="evenodd"/>
        </g>
        <g id="am2436">
          <path d="M2758.34,717.92c.99-.94.29-6.37-1.23-6.34-1.51.03-8.86,2.24-8.94,3.32-.08,1.08,9.18,3.96,10.17,3.01Z" fill="#ec6e61"/>
        </g>
      </g>
    </g>
    <g>
      <g id="am2438">
        <g id="am2439">
          <path d="M1820.84,243.79c.67-.72,1.33-1.54,1.99-2.41,1.27-1.65,2.55-3.47,3.92-5.06,1.01-1.17,2.06-2.23,3.19-3.01,3.7-2.56,13.53-2.76,22.18-3.08,4.65-.17,8.97-.37,11.8-1-1.95,5.21-5.57,7.26-9.77,8.43-4.51,1.24-9.68,1.48-14.23,3.45-.29.13-.59.3-.88.48-2.19,1.42-4.37,4.29-6.52,4.55-3,.37-6.55-.94-9.66-1.83-.69-.2-1.36-.37-1.99-.52Z" fill="#fff"/>
        </g>
        <g id="am2440">
          <path d="M1826.75,236.32c-1.37,1.59-2.65,3.41-3.92,5.06-.66.86-1.32,1.69-1.99,2.41.63.15,1.3.32,1.99.52,3.11.9,6.67,2.21,9.66,1.83,2.15-.26,4.34-3.13,6.52-4.55-.96-1.14-3.81-3.74-8.18-.61l-4.09-4.66Z" fill="#c2e1f7"/>
        </g>
        <g id="am2441">
          <path d="M1852.11,230.23c4.65-.17,8.97-.37,11.8-1-1.95,5.21-5.57,7.26-9.77,8.43-1.91-1.82-2.71-4.73-2.03-7.43Z" fill="#494d75"/>
        </g>
        <g id="am2442">
          <path d="M1836.97,248.29c-.16-.59.7-2.84,1-3.41,1.96.47,5.22,1.23,6.47,2.04,1.12.72,1.52,2.84,1.45,3.31-3.35-.71-6.09-1.23-8.92-1.95Z" fill="#f18c67"/>
        </g>
        <g id="am2443">
          <path d="M1834.33,240.98c-2.78,0-5.03,2.11-5.03,4.69s2.25,4.69,5.03,4.69,5.04-2.1,5.04-4.69-2.26-4.69-5.04-4.69Z" fill="#fff" fill-rule="evenodd"/>
        </g>
        <g id="am2444">
          <path d="M1823.49,242.06c-7.68,0-13.91,2.12-13.91,4.73s6.23,4.73,13.91,4.73,13.91-2.12,13.91-4.73-6.23-4.73-13.91-4.73Z" fill="#fff" fill-rule="evenodd"/>
        </g>
        <g id="am2445">
          <path d="M1830.84,243.79c-.67-.72-1.32-1.54-1.99-2.41-2.2-2.88-4.44-6.23-7.1-8.07-3.73-2.59-13.71-2.77-22.41-3.09-4.56-.17-8.78-.37-11.56-.99,1.86,4.97,5.22,7.06,9.18,8.26,4.63,1.4,10.07,1.55,14.82,3.61,2.48,1.08,4.95,4.73,7.41,5.03,2.99.37,6.54-.94,9.66-1.83.69-.2,1.36-.37,1.99-.52Z" fill="#fff"/>
        </g>
        <g id="am2446">
          <path d="M1814.47,245.89c-5.6,0-15.45-.81-16.02,7.41-.58,8.38,11.09,8.94,16.31,8.94-2.45-5.68-5.1-12.27-.29-16.35Z" fill="#fff"/>
        </g>
        <g id="am2447">
          <path d="M1799.34,230.22c-4.56-.17-8.78-.37-11.56-.99,1.86,4.97,5.22,7.06,9.18,8.26,2.03-1.68,3.19-4.28,2.37-7.27Z" fill="#494d75"/>
        </g>
        <g id="am2448">
          <path d="M1834.68,243.67c-.58,0-1.04.54-1.04,1.22s.46,1.22,1.04,1.22,1.04-.54,1.04-1.22-.46-1.22-1.04-1.22Z" fill="#494d75" fill-rule="evenodd"/>
        </g>
      </g>
      <g id="am2449">
        <g id="am2450">
          <path d="M2498.94,322.97c-.7-.76-1.38-1.62-2.08-2.52-1.33-1.73-2.67-3.63-4.1-5.29-1.05-1.23-2.16-2.33-3.34-3.15-3.87-2.69-14.15-2.9-23.19-3.22-4.87-.18-9.38-.39-12.34-1.04,2.04,5.45,5.82,7.59,10.23,8.82,4.7,1.3,10.13,1.54,14.88,3.6.31.14.62.31.93.51,2.28,1.48,4.57,4.48,6.82,4.76,3.13.38,6.85-.98,10.11-1.93.72-.21,1.42-.39,2.08-.54Z" fill="#fff"/>
        </g>
        <g id="am2451">
          <path d="M2492.77,315.16c1.43,1.66,2.77,3.56,4.1,5.29.7.9,1.38,1.75,2.08,2.52-.66.15-1.36.33-2.08.54-3.26.94-6.98,2.31-10.11,1.93-2.25-.28-4.53-3.28-6.82-4.76.99-1.2,3.98-3.91,8.55-.64l4.28-4.88Z" fill="#c2e1f7"/>
        </g>
        <g id="am2452">
          <path d="M2466.24,308.78c-4.87-.18-9.38-.39-12.34-1.04,2.04,5.45,5.82,7.59,10.23,8.82,1.99-1.91,2.83-4.95,2.12-7.77Z" fill="#494d75"/>
        </g>
        <g id="am2453">
          <path d="M2482.08,327.68c.17-.62-.73-2.99-1.04-3.57-2.05.49-5.46,1.29-6.77,2.13-1.17.75-1.59,2.98-1.51,3.47,3.5-.74,6.37-1.29,9.33-2.03Z" fill="#f18c67"/>
        </g>
        <g id="am2454">
          <path d="M2484.83,320.03c2.92,0,5.27,2.2,5.27,4.9s-2.36,4.9-5.27,4.9-5.27-2.2-5.27-4.9,2.36-4.9,5.27-4.9Z" fill="#fff" fill-rule="evenodd"/>
        </g>
        <g id="am2455">
          <path d="M2496.18,321.16c8.04,0,14.55,2.22,14.55,4.95s-6.51,4.94-14.55,4.94-14.55-2.22-14.55-4.94,6.51-4.95,14.55-4.95Z" fill="#fff" fill-rule="evenodd"/>
        </g>
        <g id="am2456">
          <path d="M2488.48,322.97c.7-.76,1.39-1.62,2.08-2.52,2.32-3.01,4.66-6.52,7.43-8.44,3.91-2.71,14.34-2.9,23.44-3.23,4.77-.18,9.18-.4,12.09-1.04-1.94,5.19-5.46,7.38-9.6,8.64-4.85,1.46-10.54,1.63-15.51,3.79-2.59,1.13-5.18,4.95-7.75,5.27-3.13.38-6.84-.98-10.11-1.93-.71-.21-1.41-.39-2.08-.54Z" fill="#fff"/>
        </g>
        <g id="am2457">
          <path d="M2505.61,325.16c5.84,0,16.16-.84,16.75,7.75.61,8.76-11.59,9.35-17.05,9.35,2.56-5.94,5.33-12.83.3-17.11Z" fill="#fff"/>
        </g>
        <g id="am2458">
          <path d="M2521.44,308.77c4.77-.18,9.18-.4,12.09-1.04-1.94,5.19-5.46,7.38-9.6,8.64-2.12-1.75-3.34-4.47-2.49-7.6Z" fill="#494d75"/>
        </g>
        <g id="am2459">
          <path d="M2484.48,322.84c.6,0,1.09.56,1.09,1.27s-.49,1.27-1.09,1.27-1.09-.57-1.09-1.27.49-1.27,1.09-1.27Z" fill="#494d75" fill-rule="evenodd"/>
        </g>
      </g>
      <g id="am2460">
        <g id="am2461">
          <path d="M2208.8,176.93c.2-.7-.83-3.41-1.19-4.08-2.35.56-6.25,1.48-7.75,2.44-1.33.86-1.81,3.41-1.72,3.97,4-.85,7.28-1.47,10.65-2.33Z" fill="#f18c67"/>
        </g>
        <g id="am2462">
          <path d="M2213.42,174.6c3.17-.2,5.69-1.44,6.67-3.42.55-1.14.62-2.52,0-4.07-.19-.48-.44-.97-.76-1.48-.12-.18-.24-.36-.37-.55-8.28-11.72-19.42-13.05-29.66-5.27-2.48,1.89-4.91,4.3-7.22,7.23,3.89,2.59,7.85,1.4,11.86.06,4.52-1.5,9.09-3.18,13.69.21,1.93,1.42,3.85,3.71,5.78,7.29Z" fill="#fff"/>
        </g>
        <g id="am2463">
          <path d="M2219.33,165.63c.32.51.57,1,.76,1.48.62,1.55.55,2.93,0,4.07-.98,1.98-3.51,3.22-6.67,3.42-1.93-3.58-3.85-5.87-5.78-7.29,2.88-1.84,6.93-1.63,9.36,1.08.91-1.08,1.55-2.02,2.34-2.76Z" fill="#c2e1f7"/>
        </g>
        <g id="am2464">
          <path d="M2211.96,168.19c3.33,0,6.02,2.51,6.02,5.61s-2.69,5.6-6.02,5.6-6.02-2.51-6.02-5.6,2.69-5.61,6.02-5.61Z" fill="#fff" fill-rule="evenodd"/>
        </g>
        <g id="am2465">
          <path d="M2224.92,169.48c9.19,0,16.63,2.53,16.63,5.66s-7.44,5.65-16.63,5.65-16.62-2.53-16.62-5.65,7.44-5.66,16.62-5.66Z" fill="#fff" fill-rule="evenodd"/>
        </g>
        <g id="am2466">
          <path d="M2211.55,171.4c.69,0,1.24.65,1.24,1.45s-.55,1.45-1.24,1.45-1.24-.64-1.24-1.45.55-1.45,1.24-1.45Z" fill="#494d75" fill-rule="evenodd"/>
        </g>
        <g id="am2467">
          <path d="M2226.76,174.6c-3.17-.2-5.69-1.44-6.67-3.42-.56-1.14-.62-2.52,0-4.07.25-.64.62-1.33,1.12-2.03,7.97-11.29,18.59-12.93,28.5-6.1,2.88,1.98,5.7,4.68,8.39,8.06-3.85,2.55-7.54,1.63-11.31.5-6.17-1.84-12.51-4.27-20.03,7.06Z" fill="#fff"/>
        </g>
        <g id="am2468">
          <path d="M2249.71,158.98c2.88,1.98,5.7,4.68,8.39,8.06-3.85,2.55-7.54,1.63-11.31.5-.22-.7-.33-1.44-.33-2.22,0-2.55,1.26-4.83,3.25-6.35Z" fill="#494d75"/>
        </g>
        <g id="am2469">
          <path d="M2189.31,159.81c-2.48,1.89-4.91,4.3-7.22,7.23,3.89,2.59,7.85,1.4,11.86.06v-.06c0-3.11-1.87-5.81-4.64-7.23Z" fill="#494d75"/>
        </g>
        <g id="am2470">
          <path d="M2235.99,174.06c4.57,4.79,11.85,13.15,17.18,7.65,2.5-2.57,2.69-6.81,2.45-10.32-6.73,1.66-13.08,4.41-19.63,2.66Z" fill="#fff"/>
        </g>
      </g>
    </g>
  </g>
</svg>